<svg xmlns="http://www.w3.org/2000/svg" xmlns:xlink="http://www.w3.org/1999/xlink" viewBox="0 0 404.343 536.952">
  <g id="Group_1" data-name="Group 1" transform="translate(-407.634 -369.524)">
    <g id="blobl12" transform="translate(586.268 644.776) rotate(-90)">
      <path id="Path_1" data-name="Path 1" d="M110.1-119.3c36.5,18.6,72.5,49.7,97.4,96.6,24.9,47,38.6,109.9,10.9,140.2-27.8,30.4-96.9,28.3-156.9,49.1C1.6,187.3-49.1,230.9-89.6,225.2c-40.5-5.6-70.7-60.4-93.8-113.1-23.1-52.8-39-103.4-36.5-156.6s23.5-108.9,63.2-126.9,98.2,1.7,145.9,14.6,84.5,19,120.9,37.5" fill="#2e8ece"/>
    </g>
    <image id="mock-white" width="237" height="515" transform="matrix(0.995, -0.105, 0.105, 0.995, 465.039, 394.297)" xlink:href="./screen_units.png"/>
  </g>
</svg>
